<svg id="Capa_1" enable-background="new 0 0 512.001 512.001" height="512" viewBox="0 0 512.001 512.001" width="512" xmlns="http://www.w3.org/2000/svg"><g><path d="m152.525 123.86s-39.3-49.185-30.053-116.36c0 0 75.518 33.136 93.242 90.93z" fill="#fff1dd"/><path d="m152.525 123.86 63.189-25.43c-5.857-19.101-18.029-35.505-31.7-48.913-2.473.535-4.845 1.32-7.066 2.476-11.85 6.172-17.486 21.63-27.478 30.382-4.284 3.753-9.685 6.549-15.062 9.382 8.574 20.153 18.117 32.103 18.117 32.103z" fill="#ffe4c1"/><path d="m359.477 123.86s39.3-49.185 30.053-116.36c0 0-75.518 33.136-93.242 90.93z" fill="#fff1dd"/><path d="m377.594 91.757c-5.377-2.832-10.777-5.629-15.061-9.381-9.992-8.753-15.628-24.21-27.478-30.383-2.221-1.157-4.593-1.941-7.066-2.476-13.67 13.408-25.842 29.813-31.7 48.913l63.189 25.43s9.542-11.95 18.116-32.103z" fill="#ffe4c1"/><path d="m59.819 504.5c3.477-26.178 12.163-25.025 15.64-51.203 3.477-26.179-5.208-27.333-1.731-53.512 3.477-26.18 12.163-25.026 15.64-51.207 3.477-26.179-5.208-27.333-1.731-53.512 3.478-26.183 12.163-25.029 15.641-51.212s-5.208-27.337-1.73-53.519c1.628-12.255 13.117-21.837 17.435-32.922 4.443-11.406 2.546-26.216 9.444-36.038 6.984-9.945 21.595-13.175 30.683-21.136s14.214-22.019 24.992-27.633c10.645-5.544 25.076-1.714 36.968-4.616 11.557-2.821 22.569-12.948 34.931-12.948 12.362 0 23.374 10.128 34.931 12.948 11.892 2.903 26.323-.928 36.968 4.616 10.778 5.613 15.904 19.672 24.992 27.633s23.699 11.191 30.683 21.136c6.898 9.822 5 24.632 9.443 36.038 4.318 11.085 15.807 20.668 17.435 32.922 3.477 26.178-5.208 27.332-1.731 53.511s12.163 25.025 15.64 51.204c3.477 26.18-5.208 27.334-1.731 53.514 3.477 26.179 12.163 25.026 15.64 51.205 3.478 26.183-5.208 27.337-1.73 53.519 3.478 26.183 12.163 25.029 15.641 51.212z" fill="#e7a561"/><path d="m59.819 504.5c3.477-26.178 12.163-25.025 15.64-51.203 3.477-26.179-5.208-27.333-1.731-53.512 3.477-26.18 12.163-25.026 15.64-51.207 3.477-26.179-5.208-27.333-1.731-53.512 3.478-26.183 12.163-25.029 15.641-51.212s-5.208-27.337-1.73-53.519c1.628-12.255 13.117-21.837 17.435-32.922 4.443-11.406 2.546-26.216 9.444-36.038 6.984-9.945 21.595-13.175 30.683-21.136s14.214-22.019 24.992-27.633c10.645-5.544 25.076-1.714 36.968-4.616 11.557-2.821 22.569-12.948 34.931-12.948 12.362 0 23.374 10.128 34.931 12.948 11.892 2.903 26.323-.928 36.968 4.616 10.778 5.613 15.904 19.672 24.992 27.633s23.699 11.191 30.683 21.136c6.898 9.822 5 24.632 9.443 36.038 4.318 11.085 15.807 20.668 17.435 32.922 3.477 26.178-5.208 27.332-1.731 53.511s12.163 25.025 15.64 51.204c3.477 26.18-5.208 27.334-1.731 53.514 3.477 26.179 12.163 25.026 15.64 51.205 3.478 26.183-5.208 27.337-1.73 53.519 3.478 26.183 12.163 25.029 15.641 51.212z" fill="#e7a561"/><path d="m436.541 453.288c-3.478-26.183 5.208-27.337 1.73-53.519-3.477-26.179-12.163-25.026-15.64-51.205-3.477-26.18 5.208-27.334 1.731-53.514-3.477-26.179-12.163-25.025-15.64-51.204-3.477-26.178 5.209-27.332 1.731-53.511-1.628-12.255-13.117-21.838-17.435-32.923-4.443-11.406-2.546-26.216-9.443-36.038-6.984-9.945-21.595-13.175-30.683-21.136-9.088-7.96-14.214-22.019-24.992-27.633-10.645-5.544-25.076-1.714-36.968-4.616-11.557-2.821-22.569-12.948-34.931-12.948-4.64 0-9.09 1.427-13.45 3.359 7.256 3.214 14.262 7.828 21.481 9.589 11.892 2.903 26.323-.928 36.968 4.616 10.778 5.613 15.904 19.672 24.992 27.633s23.699 11.191 30.683 21.136c6.898 9.822 5 24.632 9.443 36.038 4.318 11.085 15.807 20.668 17.435 32.923 3.477 26.178-5.208 27.332-1.731 53.511s12.163 25.025 15.64 51.204c3.478 26.18-5.208 27.334-1.731 53.514 3.477 26.179 12.163 25.026 15.64 51.205 3.478 26.183-5.208 27.337-1.73 53.519 3.478 26.183 12.163 25.029 15.641 51.212h26.9c-3.477-26.183-12.163-25.03-15.641-51.212z" fill="#e49542"/><path d="m339.044 185.984c-12.796 3.8-28.693-4.22-42.649-2.353-13.474 1.802-26.566 13.786-40.397 13.785-13.83 0-26.922-11.984-40.396-13.786-13.955-1.867-29.851 6.153-42.647 2.353-.62-.184-1.23-.392-1.83-.62-3.563-1.358-7.379 1.264-7.379 5.078v60.26c0 10.331 5.225 19.961 13.885 25.594 12.692 8.254 20.348 22.366 20.348 37.506v6.693c0 27.063 21.939 49.002 49.002 49.002h18.036c27.063 0 49.002-21.939 49.002-49.002v-6.693c0-15.139 7.656-29.252 20.348-37.506 8.661-5.633 13.885-15.263 13.885-25.594v-60.26c0-3.813-3.816-6.435-7.379-5.078-.597.229-1.208.437-1.829.621z" fill="#fff1dd"/><g><path d="m339.044 185.984c-4.788 1.422-10.01 1.189-15.402.438v64.279c0 10.331-5.225 19.961-13.886 25.594-12.692 8.254-20.348 22.366-20.348 37.506v6.693c0 25.956-20.186 47.186-45.713 48.88 1.088.072 2.182.122 3.288.122h18.036c27.063 0 49.002-21.939 49.002-49.002v-6.693c0-15.14 7.656-29.252 20.348-37.506 8.661-5.633 13.886-15.263 13.886-25.594v-69.399c-2.843 2.031-5.874 3.691-9.211 4.682z" fill="#ffe4c1"/></g><path d="m268.069 301.01h-24.135c-3.712 0-6.722-3.009-6.722-6.722v-19.678c0-10.377 8.412-18.789 18.789-18.789 10.377 0 18.789 8.412 18.789 18.789v19.678c0 3.713-3.009 6.722-6.721 6.722z" fill="#407093"/><g><path d="m393.542 410.391c-6.847 2.188-12.382 6.573-17.733 10.814-4.757 3.769-9.248 7.329-13.629 8.386-4.548 1.098-10.258-.047-16.306-1.263-6.589-1.322-13.401-2.688-20.322-1.572-7.012 1.134-13.095 4.599-18.978 7.949-5.312 3.026-10.331 5.885-14.883 6.254-4.614.37-10.059-1.653-15.822-3.8-6.307-2.349-12.828-4.777-19.867-4.777s-13.561 2.429-19.867 4.777c-5.763 2.146-11.206 4.168-15.822 3.8-4.552-.369-9.569-3.228-14.883-6.254-5.883-3.351-11.966-6.815-18.979-7.949-6.922-1.12-13.734.249-20.321 1.572-6.047 1.216-11.757 2.36-16.306 1.263-4.381-1.057-8.872-4.617-13.628-8.386-5.353-4.241-10.888-8.627-17.734-10.814-3.949-1.264-8.167.914-9.428 4.86-1.261 3.945.916 8.166 4.861 9.427 4.241 1.355 8.488 4.722 12.984 8.284 5.818 4.61 11.835 9.378 19.425 11.211 7.774 1.877 15.745.274 22.778-1.139 5.521-1.108 10.737-2.154 14.974-1.472 4.338.702 9.007 3.361 13.95 6.177 6.501 3.703 13.224 7.532 21.094 8.171 7.944.646 15.226-2.069 22.271-4.694 5.295-1.972 10.296-3.834 14.632-3.834s9.337 1.862 14.632 3.834c6.334 2.359 12.86 4.79 19.881 4.79 8.812 0 15.902-3.948 23.483-8.267 4.943-2.815 9.611-5.475 13.949-6.177 4.234-.686 9.451.362 14.974 1.472 7.033 1.413 15.008 3.011 22.778 1.139 7.59-1.833 13.606-6.601 19.425-11.211 4.496-3.562 8.743-6.929 12.984-8.284 3.945-1.261 6.122-5.481 4.86-9.427-1.26-3.946-5.486-6.124-9.427-4.86z"/><path d="m214.191 232.106v-13.036c0-4.143-3.357-7.5-7.5-7.5s-7.5 3.357-7.5 7.5v13.036c0 4.143 3.357 7.5 7.5 7.5s7.5-3.357 7.5-7.5z"/><path d="m312.811 232.106v-13.036c0-4.143-3.357-7.5-7.5-7.5s-7.5 3.357-7.5 7.5v13.036c0 4.143 3.357 7.5 7.5 7.5s7.5-3.357 7.5-7.5z"/><path d="m238.538 319.397h-1.326c-4.143 0-7.5 3.357-7.5 7.5s3.357 7.5 7.5 7.5h1.326c6.793 0 12.958-2.731 17.463-7.148 4.506 4.417 10.671 7.148 17.464 7.148h1.325c4.143 0 7.5-3.357 7.5-7.5s-3.357-7.5-7.5-7.5h-1.325c-5.494 0-9.964-4.47-9.964-9.964v-.924h4.568c7.842 0 14.221-6.38 14.221-14.222v-19.677c0-14.496-11.793-26.289-26.289-26.289s-26.289 11.793-26.289 26.289v19.678c0 7.842 6.38 14.222 14.222 14.222h4.567v.924c0 5.494-4.47 9.963-9.963 9.963zm6.174-44.787c0-6.225 5.064-11.289 11.289-11.289s11.289 5.064 11.289 11.289v18.899h-22.578z"/><path d="m459.617 503.513c-1.898-14.293-5.41-21.521-8.51-27.897-2.979-6.13-5.552-11.425-7.131-23.314-1.579-11.891-.478-17.673.798-24.368l.058-.302c.774-4.068-1.896-7.995-5.966-8.77-4.062-.775-7.996 1.895-8.771 5.965l-.057.3c-1.327 6.964-2.83 14.857-.932 29.149s5.41 21.52 8.509 27.896c2.979 6.13 5.553 11.425 7.132 23.315.548 4.128 4.343 6.994 8.422 6.447 4.107-.544 6.994-4.316 6.448-8.421z"/><path d="m438.965 403.565c4.085-.684 6.844-4.549 6.16-8.635-1.966-11.749-5.133-18.273-7.928-24.03-2.979-6.136-5.552-11.434-7.131-23.324s-.478-17.672.798-24.366c1.327-6.964 2.831-14.856.933-29.147-1.898-14.29-5.41-21.517-8.509-27.893-2.979-6.13-5.552-11.423-7.131-23.312s-.478-17.67.798-24.364c1.327-6.964 2.831-14.856.933-29.146-1.195-9.006-6.356-16.433-10.91-22.984-2.835-4.08-5.514-7.934-6.971-11.674-1.539-3.95-2.207-8.729-2.914-13.789-1.144-8.18-2.326-16.639-7.38-23.837-2.968-4.226-6.885-7.403-11.017-10.05 10.781-20.893 24.238-57.146 18.265-100.536-.32-2.33-1.715-4.374-3.767-5.522-2.053-1.148-4.524-1.268-6.678-.322-2.082.914-50.065 22.285-79.335 61.146-.139-.001-.278-.002-.417-.003-5.108-.034-9.934-.067-14.054-1.073-3.899-.951-8.072-3.1-12.49-5.373-7.094-3.65-15.135-7.789-24.22-7.789-9.084 0-17.125 4.139-24.219 7.789-4.418 2.273-8.591 4.421-12.49 5.373-4.12 1.006-8.945 1.039-14.055 1.073-.138.001-.276.002-.414.003-9.213-12.228-21.218-23.958-35.755-34.907-3.308-2.492-8.011-1.831-10.503 1.478s-1.831 8.011 1.478 10.503c10.461 7.88 19.455 16.141 26.879 24.661-2.134.587-4.235 1.373-6.285 2.44-7.902 4.116-13.094 11.438-17.673 17.898-2.923 4.123-5.683 8.017-8.797 10.744-2.146 1.88-4.826 3.521-7.746 5.13-8.925-17.41-19.733-46.182-17.572-80.693 2 1.062 4.257 2.301 6.709 3.708 3.595 2.064 8.178.823 10.238-2.77 2.062-3.593.822-8.177-2.77-10.238-10.241-5.88-17.248-8.972-17.542-9.101-2.152-.945-4.625-.826-6.677.322-2.053 1.148-3.447 3.192-3.768 5.522-5.973 43.388 7.484 79.644 18.264 100.537-4.132 2.646-8.049 5.824-11.016 10.049-5.055 7.198-6.237 15.658-7.381 23.84-.707 5.059-1.375 9.837-2.913 13.786-1.457 3.74-4.136 7.594-6.971 11.674-4.554 6.553-9.715 13.979-10.911 22.984-1.898 14.292-.395 22.186.933 29.15 1.275 6.696 2.377 12.479.798 24.369s-4.152 17.185-7.132 23.315c-3.099 6.377-6.611 13.604-8.51 27.896-1.897 14.291-.394 22.183.934 29.146 1.275 6.694 2.377 12.476.798 24.365s-4.152 17.184-7.132 23.313c-3.099 6.376-6.61 13.603-8.509 27.894-1.898 14.29-.395 22.183.933 29.146 1.276 6.694 2.378 12.477.799 24.365s-4.152 17.181-7.131 23.31c-3.1 6.376-6.611 13.603-8.51 27.894-.546 4.105 2.341 7.877 6.447 8.422 4.087.548 7.875-2.328 8.422-6.447 1.579-11.888 4.152-17.182 7.131-23.311 3.1-6.376 6.611-13.603 8.51-27.893 1.898-14.291.395-22.184-.933-29.147-1.276-6.694-2.378-12.476-.799-24.364s4.152-17.183 7.131-23.312c3.1-6.377 6.611-13.604 8.51-27.896 1.898-14.291.395-22.184-.933-29.147-1.275-6.694-2.377-12.476-.799-24.364 1.58-11.89 4.152-17.185 7.132-23.314 3.099-6.377 6.611-13.604 8.51-27.897 1.898-14.292.395-22.186-.933-29.15-1.275-6.696-2.377-12.479-.798-24.369.718-5.403 4.43-10.744 8.359-16.398 3.209-4.618 6.527-9.393 8.63-14.79 2.175-5.582 2.997-11.465 3.792-17.154.938-6.715 1.825-13.058 4.801-17.295 3.038-4.327 8.742-7.33 14.781-10.51 5.045-2.655 10.261-5.401 14.706-9.295 4.443-3.894 7.853-8.702 11.149-13.353 3.947-5.567 7.675-10.827 12.365-13.27 8.271-4.309 22.841-.947 35.281-3.982 5.626-1.373 10.797-4.034 15.798-6.607 6.122-3.151 11.904-6.127 17.354-6.127 5.451 0 11.233 2.976 17.355 6.127 5.001 2.573 10.172 5.234 15.797 6.607 12.524 3.056 26.968-.347 35.282 3.981 4.689 2.443 8.418 7.702 12.365 13.271 3.297 4.65 6.706 9.46 11.149 13.353 4.445 3.894 9.661 6.64 14.706 9.295 6.039 3.18 11.743 6.183 14.781 10.509 2.975 4.237 3.861 10.579 4.8 17.294.795 5.689 1.617 11.573 3.793 17.157 2.102 5.396 5.42 10.171 8.63 14.789 3.93 5.654 7.641 10.994 8.358 16.398 1.579 11.889.478 17.67-.798 24.364-1.327 6.964-2.831 14.856-.933 29.146 1.897 14.291 5.41 21.518 8.509 27.894 2.979 6.13 5.552 11.423 7.131 23.311 1.579 11.889.478 17.671-.798 24.365-1.327 6.964-2.831 14.857-.933 29.148 1.897 14.29 5.408 21.521 8.506 27.901 2.693 5.546 5.019 10.336 6.627 19.953.691 4.088 4.558 6.833 8.643 6.162zm-89.927-319.713c-4.58-6.46-9.771-13.782-17.674-17.899-2.047-1.066-4.146-1.851-6.277-2.438 19.154-21.948 44.553-37.257 58.066-44.463 2.155 34.502-8.65 63.268-17.573 80.673-2.919-1.609-5.599-3.249-7.746-5.129-3.114-2.727-5.874-6.62-8.796-10.744z"/><path d="m246.983 376.996h18.036c31.155 0 56.502-25.347 56.502-56.502v-6.693c0-12.652 6.332-24.322 16.938-31.219 10.831-7.045 17.297-18.963 17.297-31.882v-60.287c0-4.252-2.091-8.23-5.592-10.641-3.504-2.411-7.968-2.944-11.935-1.427-.443.169-.889.32-1.319.449-5.224 1.549-12.038.325-19.253-.97-7.224-1.298-14.696-2.641-22.256-1.628-7.346.982-14.083 4.25-20.599 7.41-6.69 3.245-13.01 6.31-18.804 6.31-5.793 0-12.112-3.064-18.802-6.31-6.516-3.16-13.254-6.428-20.6-7.41-7.562-1.013-15.033.33-22.257 1.627-7.215 1.294-14.03 2.521-19.254.968-.43-.127-.87-.276-1.309-.444-3.972-1.52-8.437-.987-11.938 1.425-3.502 2.411-5.593 6.389-5.593 10.642v41.054c0 4.143 3.357 7.5 7.5 7.5s7.5-3.357 7.5-7.5v-38.172c8.501 2.39 17.266.816 25.746-.708 6.366-1.143 12.379-2.226 17.616-1.523 4.957.663 10.341 3.274 16.042 6.04 7.92 3.841 16.108 7.812 25.348 7.812s17.429-3.972 25.349-7.812c5.701-2.766 11.086-5.377 16.042-6.04 5.233-.698 11.249.38 17.616 1.524 8.479 1.521 17.242 3.097 25.75.708v57.403c0 7.823-3.916 15.041-10.475 19.307-14.877 9.675-23.76 26.046-23.76 43.794v6.693c0 22.884-18.618 41.502-41.502 41.502h-18.036c-22.884 0-41.502-18.618-41.502-41.502v-5.7c0-18.385-8.876-35.124-23.744-44.777-4.126-2.678-7.232-6.533-8.984-11.149-1.469-3.872-5.806-5.823-9.672-4.351-3.873 1.469-5.821 5.8-4.353 9.673 2.891 7.616 8.022 13.982 14.841 18.408 10.59 6.876 16.912 18.912 16.912 32.196v5.7c.002 31.155 25.349 56.502 56.504 56.502z"/></g></g></svg>