<svg id="Capa_1" enable-background="new 0 0 512 512" height="512" viewBox="0 0 512 512" width="512" xmlns="http://www.w3.org/2000/svg"><g><path d="m458.89 50.72v375.64c0 .02-.02.04-.04.04h-318.74c-22.463 0-34.51 6.996-34.51 36.95 0 43.551-61.753 64.497-91.6 34.65-8.65-8.65-14-20.61-14-33.8v-451.74c0-6.88 5.58-12.46 12.46-12.46h395.71c28.01 0 50.72 22.71 50.72 50.72z" fill="#f0f7ff"/><path d="m458.89 50.72v375.64c0 .02-.02.04-.04.04h-229.41v-426.4h178.73c28.01 0 50.72 22.71 50.72 50.72z" fill="#dfe7f4"/><path d="m512 430.44v33.76c0 26.4-21.4 47.8-47.8 47.8h-416.4c26.4 0 47.8-21.4 47.8-47.8v-33.76c0-7.75 6.29-14.04 14.05-14.04h388.3c7.76 0 14.05 6.29 14.05 14.04z" fill="#dfe7f4"/><path d="m512 430.44v33.76c0 26.4-21.4 47.8-47.8 47.8h-234.76v-95.6h268.51c7.76 0 14.05 6.29 14.05 14.04z" fill="#c7cfe1"/><g><path d="m366.79 103.2c0 8.28-6.72 15-15 15h-244.69c-8.29 0-15-6.72-15-15 0-8.29 6.71-15 15-15h244.69c8.28 0 15 6.71 15 15z" fill="#7ed8f6"/></g><g><path d="m366.79 173.2c0 8.28-6.72 15-15 15h-244.69c-8.29 0-15-6.72-15-15 0-8.29 6.71-15 15-15h244.69c8.28 0 15 6.71 15 15z" fill="#7ed8f6"/></g><g><path d="m366.79 243.2c0 8.28-6.72 15-15 15h-244.69c-8.29 0-15-6.72-15-15 0-8.29 6.71-15 15-15h244.69c8.28 0 15 6.71 15 15z" fill="#7ed8f6"/></g><g><path d="m366.79 313.2c0 8.28-6.72 15-15 15h-244.69c-8.29 0-15-6.72-15-15 0-8.29 6.71-15 15-15h244.69c8.28 0 15 6.71 15 15z" fill="#7ed8f6"/></g><g fill="#6aa9ff"><path d="m366.79 313.2c0 8.28-6.72 15-15 15h-122.35v-30h122.35c8.28 0 15 6.71 15 15z"/><path d="m366.79 243.2c0 8.28-6.72 15-15 15h-122.35v-30h122.35c8.28 0 15 6.71 15 15z"/><path d="m366.79 173.2c0 8.28-6.72 15-15 15h-122.35v-30h122.35c8.28 0 15 6.71 15 15z"/><path d="m351.79 118.2h-122.35v-30h122.35c8.28 0 15 6.71 15 15 0 8.28-6.72 15-15 15z"/></g></g></svg>