<svg id="Capa_1" enable-background="new 0 0 512 512" height="512" viewBox="0 0 512 512" width="512" xmlns="http://www.w3.org/2000/svg"><g><g><path d="m512 210.93v90.14c0 7.65-5.75 14.07-13.35 14.91l-71.18 7.9c-.66 1.67-1.35 3.33-2.07 4.99l44.88 55.82c4.79 5.96 4.34 14.56-1.06 19.98l-63.59 63.88c-5.4 5.42-14 5.92-19.98 1.15l-56.02-44.62c-1.91.83-3.83 1.62-5.75 2.39l-7.9 71.18c-.84 7.6-7.26 13.35-14.91 13.35h-90.14c-7.65 0-14.07-5.75-14.91-13.35l-7.9-71.18c-1.67-.66-3.33-1.35-4.99-2.07l-55.82 44.88c-5.96 4.79-14.56 4.34-19.98-1.06l-63.88-63.59c-5.42-5.4-5.92-14-1.15-19.98l44.62-56.02c-.83-1.91-1.62-3.83-2.39-5.75l-71.18-7.9c-7.6-.84-13.35-7.26-13.35-14.91v-90.14c0-7.65 5.75-14.07 13.35-14.91l71.18-7.9c.66-1.67 1.35-3.33 2.07-4.99l-44.88-55.82c-4.79-5.96-4.34-14.56 1.06-19.98l63.59-63.88c5.4-5.42 14-5.92 19.98-1.15l56.02 44.62c1.91-.83 3.83-1.62 5.75-2.39l7.9-71.18c.84-7.6 7.26-13.35 14.91-13.35h90.14c7.65 0 14.07 5.75 14.91 13.35l7.9 71.18c1.67.66 3.33 1.35 4.99 2.07l55.82-44.88c5.96-4.79 14.56-4.34 19.98 1.06l63.88 63.59c5.42 5.4 5.92 14 1.15 19.98l-44.62 56.02c.83 1.91 1.62 3.83 2.39 5.75l71.18 7.9c7.6.84 13.35 7.26 13.35 14.91z" fill="#334973"/></g><path d="m512 210.93v90.14c0 7.65-5.75 14.07-13.35 14.91l-71.18 7.9c-.66 1.67-1.35 3.33-2.07 4.99l44.88 55.82c4.79 5.96 4.34 14.56-1.06 19.98l-63.59 63.88c-5.4 5.42-14 5.92-19.98 1.15l-56.02-44.62c-1.91.83-3.83 1.62-5.75 2.39l-7.9 71.18c-.84 7.6-7.26 13.35-14.91 13.35h-45.07v-512h45.07c7.65 0 14.07 5.75 14.91 13.35l7.9 71.18c1.67.66 3.33 1.35 4.99 2.07l55.82-44.88c5.96-4.79 14.56-4.34 19.98 1.06l63.88 63.59c5.42 5.4 5.92 14 1.15 19.98l-44.62 56.02c.83 1.91 1.62 3.83 2.39 5.75l71.18 7.9c7.6.84 13.35 7.26 13.35 14.91z" fill="#1f3259"/><circle cx="256" cy="256" fill="#7ed8f6" r="86.19"/><path d="m342.19 256c0 47.6-38.59 86.19-86.19 86.19v-172.38c47.6 0 86.19 38.59 86.19 86.19z" fill="#6aa9ff"/><circle cx="256" cy="256" fill="#f0f7ff" r="15"/><path d="m271 256c0 8.28-6.72 15-15 15v-30c8.28 0 15 6.72 15 15z" fill="#dfe7f4"/></g></svg>