<svg id="Capa_1" enable-background="new 0 0 512 512" height="512" viewBox="0 0 512 512" width="512" xmlns="http://www.w3.org/2000/svg"><g><path d="m7.99 206.81 70.613-70.613v126.045z" fill="#7ed8f6"/><path d="m504.01 206.81-70.613-70.613v126.045z" fill="#6aa9ff"/><g><path d="m444.42 15v252.92c0 4.87-2.36 9.43-6.33 12.24l-110.24 78.05c-39.954 28.284-93.443 29.281-134.58 1.46l-119.14-81.16c-4.1-2.8-6.55-7.44-6.55-12.4v-251.11c0-8.28 6.72-15 15-15h346.84c8.28 0 15 6.72 15 15z" fill="#f0f7ff"/></g><path d="m444.42 15v252.92c0 4.87-2.36 9.43-6.33 12.24l-110.24 78.05c-20.338 14.398-44.95 22.396-71.85 21.7v-379.91h173.42c8.28 0 15 6.72 15 15z" fill="#dfe7f4"/><g><path d="m486.98 256.7v227.95c0 6.82-6.06 12.35-13.54 12.35h-434.88c-7.48 0-13.54-5.53-13.54-12.35v-227.95c0-9.853 12.124-15.806 21.16-10.21l168.42 104.68c12.48 7.7 26.88 11.8 41.4 12.31 17.21.62 34.59-3.8 49.18-13.23l160.44-103.63c8.946-5.783 21.36.073 21.36 10.08z" fill="#ffe14d"/></g><path d="m486.98 256.7v227.95c0 6.82-6.06 12.35-13.54 12.35h-217.44v-133.52c17.21.62 34.59-3.8 49.18-13.23l160.44-103.63c8.946-5.783 21.36.073 21.36 10.08z" fill="#fabe2c"/><path d="m488.33 207.83-177.82 125.9c-16.17 11.45-35.44 16.82-54.51 16.07-28.006-1.078-44.469-14-54.3-20.69-.02-.01-.04-.02-.05-.04l-178.2-121.4c-4.6-3.13-10.55-3.46-15.46-.86-4.92 2.6-7.99 7.7-7.99 13.26v276.93c0 8.28 6.72 15 15 15h482c8.28 0 15-6.72 15-15v-276.93c0-12.161-13.754-19.255-23.67-12.24zm-6.33 274.17h-452v-233.56l140 95.37-82 82.01c-5.86 5.85-5.86 15.35 0 21.21 5.829 5.829 15.332 5.878 21.21 0l86.06-86.06c39.521 25.582 89.737 25.09 128.45.03l86.03 86.03c5.82 5.84 15.342 5.868 21.21 0 5.86-5.86 5.86-15.36 0-21.21l-82.32-82.33 133.36-94.42z" fill="#fabe2c"/><path d="m512 220.07v276.93c0 8.28-6.72 15-15 15h-241v-30h226v-232.93l-133.36 94.42 82.32 82.33c5.86 5.85 5.86 15.35 0 21.21s-15.383 5.847-21.21 0l-86.03-86.03c-20.606 13.339-44.272 19.638-67.72 18.9v-30.1c19.07.75 38.34-4.62 54.51-16.07l177.82-125.9c9.931-7.025 23.67.097 23.67 12.24z" fill="#ff9100"/><g><path d="m374.42 85c0 8.28-6.72 15-15 15h-206.84c-8.28 0-15-6.72-15-15s6.72-15 15-15h206.84c8.28 0 15 6.72 15 15z" fill="#7ed8f6"/></g><g><path d="m374.42 155c0 8.28-6.72 15-15 15h-206.84c-8.28 0-15-6.72-15-15s6.72-15 15-15h206.84c8.28 0 15 6.72 15 15z" fill="#7ed8f6"/></g><g><path d="m374.42 225c0 8.28-6.72 15-15 15h-206.84c-8.28 0-15-6.72-15-15s6.72-15 15-15h206.84c8.28 0 15 6.72 15 15z" fill="#7ed8f6"/></g><g fill="#6aa9ff"><path d="m374.42 225c0 8.28-6.72 15-15 15h-103.42v-30h103.42c8.28 0 15 6.72 15 15z"/><path d="m374.42 155c0 8.28-6.72 15-15 15h-103.42v-30h103.42c8.28 0 15 6.72 15 15z"/><path d="m359.42 100h-103.42v-30h103.42c8.28 0 15 6.72 15 15s-6.72 15-15 15z"/></g></g></svg>