<svg id="Capa_1" enable-background="new 0 0 512 512" height="512" viewBox="0 0 512 512" width="512" xmlns="http://www.w3.org/2000/svg"><g><path d="m511.983 99.813c-.401 17.513-7.745 33.663-20.689 45.466l-219.798 197.111-26.13 8.897-8.917 22.543-57.609-38.743-.842-1.242-37.892-56.356 24.587-10.53 6.583-24.787 195.14-221.118c11.722-13.065 27.903-20.549 45.517-21.03 17.613-.481 34.175 6.122 46.629 18.585l34.836 34.836c12.383 12.384 18.986 28.855 18.585 46.368z" fill="#4793ff"/><path d="m511.983 99.813c-.401 17.513-7.745 33.663-20.689 45.466l-219.798 197.111-26.13 8.897-8.917 22.543-57.609-38.743-.842-1.242 297.906-297.893 17.493 17.493c12.384 12.384 18.987 28.855 18.586 46.368z" fill="#525cdd"/><path d="m271.496 342.39-35.047 31.439-57.609-38.743-.842-1.242-37.892-56.356 31.169-35.317 49.204 49.203z" fill="#fabe2c"/><path d="m271.496 342.39-35.047 31.439-57.609-38.743-.842-1.242 42.481-42.47z" fill="#ff9100"/><path d="m236.449 373.829-5.601 9.849-9.588 16.892-46.549 81.985c-2.274 3.988-6.242 6.733-10.78 7.434l-142.44 22.011 36.75-36.088 44.464-43.662c.912.1 1.854.17 2.805.17 13.245 0 23.986-10.74 23.986-23.995 0-7.154-3.136-13.576-8.105-17.974-4.228-3.737-9.789-6.011-15.88-6.011-13.255 0-23.996 10.74-23.996 23.985 0 .801.05 1.593.12 2.374l-45.045 44.244-36.59 35.927 23.986-141.196c.751-4.448 3.467-8.316 7.394-10.55l85.002-48.261 13.836-7.855 9.889-5.621 8.095 8.095 18.205 18.204 20.83 20.829 28.604 28.604 12.514 12.514z" fill="#0d527c"/><path d="m229.606 385.852-101.533-101.531" fill="none"/><path d="m236.449 373.829-5.601 9.849-9.588 16.892-46.549 81.985c-2.274 3.988-6.242 6.733-10.78 7.434l-142.44 22.011 36.75-36.088 44.464-43.662c.912.1 1.854.17 2.805.17 13.245 0 23.986-10.74 23.986-23.995 0-7.154-3.136-13.576-8.105-17.974l65.845-65.834 28.604 28.604 12.514 12.514z" fill="#003b60"/></g></svg>